<?xml version="1.0" encoding="UTF-8" standalone="no"?>
<svg
   xmlns:dc="http://purl.org/dc/elements/1.1/"
   xmlns:cc="http://creativecommons.org/ns#"
   xmlns:rdf="http://www.w3.org/1999/02/22-rdf-syntax-ns#"
   xmlns:svg="http://www.w3.org/2000/svg"
   xmlns="http://www.w3.org/2000/svg"
   xmlns:sodipodi="http://sodipodi.sourceforge.net/DTD/sodipodi-0.dtd"
   xmlns:inkscape="http://www.inkscape.org/namespaces/inkscape"
   viewBox="0 0 154.00044 128.406"
   height="128.40601"
   width="154.00044"
   xml:space="preserve"
   id="svg2"
   version="1.1"
   sodipodi:docname="bee.svg"
   inkscape:version="0.92.2 5c3e80d, 2017-08-06"
   inkscape:export-filename="/home/gelldur/Projects/Playsoft/pandemic2/pandemic/lib/Bee/doc/bee.png"
   inkscape:export-xdpi="30"
   inkscape:export-ydpi="30"><sodipodi:namedview
     pagecolor="#ffffff"
     bordercolor="#666666"
     borderopacity="1"
     objecttolerance="10"
     gridtolerance="10"
     guidetolerance="10"
     inkscape:pageopacity="0"
     inkscape:pageshadow="2"
     inkscape:window-width="1920"
     inkscape:window-height="1019"
     id="namedview125"
     showgrid="false"
     fit-margin-top="2"
     fit-margin-left="2"
     fit-margin-right="2"
     fit-margin-bottom="2"
     inkscape:zoom="14.159999"
     inkscape:cx="77.168242"
     inkscape:cy="45.83455"
     inkscape:window-x="0"
     inkscape:window-y="0"
     inkscape:window-maximized="1"
     inkscape:current-layer="g4688" /><metadata
     id="metadata8"><rdf:RDF><cc:Work
         rdf:about=""><dc:format>image/svg+xml</dc:format><dc:type
           rdf:resource="http://purl.org/dc/dcmitype/StillImage" /><dc:title /></cc:Work></rdf:RDF></metadata><defs
     id="defs6"><clipPath
       id="clipPath20"
       clipPathUnits="userSpaceOnUse"><path
         id="path18"
         d="M 0,800 H 800 V 0 H 0 Z"
         inkscape:connector-curvature="0" /></clipPath><clipPath
       id="clipPath160"
       clipPathUnits="userSpaceOnUse"><path
         id="path158"
         d="M 0,800 H 800 V 0 H 0 Z"
         inkscape:connector-curvature="0" /></clipPath></defs><g
     transform="matrix(1.3333333,0,0,-1.3333333,-493.70791,706.64236)"
     id="g10"><g
       id="g154"
       transform="translate(27.966105,8.4745771)"><g
         clip-path="url(#clipPath160)"
         id="g156"><g
           id="g4688"
           transform="matrix(0.21075766,0,0,0.21075766,315.74824,373.59177)"><g
             id="g162"
             transform="translate(288.4702,484.4302)"><path
               inkscape:connector-curvature="0"
               d="m 0,0 c 29.55,-11.57 46.49,-25.2 46.49,-37.41 0,-12.21 -16.94,-25.84 -46.49,-37.41 -25.44,-9.96 -57.48,-16.92 -77.9,-16.92 -37.72,0 -68.4,24.37 -68.4,54.33 0,29.96 30.68,54.33 68.4,54.33 C -57.48,16.92 -25.44,9.96 0,0"
               style="fill:#92e7f6;fill-opacity:0.55605379;fill-rule:nonzero;stroke:none"
               id="path164" /></g><g
             id="g166"
             transform="translate(334.96,447.02)"><path
               inkscape:connector-curvature="0"
               d="m 0,0 c 0,12.21 -16.94,25.84 -46.49,37.41 -25.44,9.96 -57.48,16.92 -77.9,16.92 -37.72,0 -68.4,-24.37 -68.4,-54.33 0,-29.96 30.68,-54.33 68.4,-54.33 20.42,0 52.46,6.96 77.9,16.92 C -16.94,-25.84 0,-12.21 0,0 M -43.21,45.79 C -19.39,36.46 9,20.95 9,0 9,-20.95 -19.39,-36.46 -43.21,-45.79 -70,-56.28 -102.63,-63.33 -124.39,-63.33 c -42.68,0 -77.4,28.41 -77.4,63.33 0,34.92 34.72,63.33 77.4,63.33 21.76,0 54.39,-7.05 81.18,-17.54"
               style="fill:#42210b;fill-opacity:1;fill-rule:nonzero;stroke:none"
               id="path168" /></g><g
             id="g170"
             transform="translate(589.5703,501.3501)"><path
               inkscape:connector-curvature="0"
               d="m 0,0 c 37.71,0 68.39,-24.37 68.39,-54.33 0,-29.96 -30.68,-54.33 -68.39,-54.33 -20.431,0 -52.46,6.96 -77.91,16.92 -29.55,11.57 -46.49,25.2 -46.49,37.41 0,12.21 16.94,25.84 46.49,37.41 C -52.46,-6.96 -20.431,0 0,0"
               style="fill:#92e7f6;fill-opacity:0.55686275;fill-rule:nonzero;stroke:none"
               id="path172" /></g><g
             id="g174"
             transform="translate(657.96,447.02)"><path
               inkscape:connector-curvature="0"
               d="m 0,0 c 0,29.96 -30.68,54.33 -68.39,54.33 -20.43,0 -52.46,-6.96 -77.91,-16.92 -29.55,-11.57 -46.49,-25.2 -46.49,-37.41 0,-12.21 16.94,-25.84 46.49,-37.41 25.45,-9.96 57.48,-16.92 77.91,-16.92 C -30.68,-54.33 0,-29.96 0,0 M -68.39,63.33 C -25.72,63.33 9,34.92 9,0 c 0,-34.92 -34.72,-63.33 -77.39,-63.33 -21.77,0 -54.4,7.05 -81.19,17.54 -23.82,9.33 -52.21,24.84 -52.21,45.79 0,20.95 28.39,36.46 52.21,45.79 26.79,10.49 59.42,17.54 81.19,17.54"
               style="fill:#42210b;fill-opacity:1;fill-rule:nonzero;stroke:none"
               id="path176" /></g><g
             id="g178"
             transform="translate(441.9678,327)"><path
               inkscape:connector-curvature="0"
               d="M 0,0 -43.301,-75 -86.603,0 Z"
               style="fill:#42210b;fill-opacity:1;fill-rule:nonzero;stroke:none"
               id="path180" /></g><g
             id="g182"
             transform="matrix(1.0342666,0,0,1.5891504,273.67501,395.24359)"><path
               inkscape:connector-curvature="0"
               d="M -2.5131284,2.2618156 H 239.5105 C 233.68155,-9.8883172 226.45651,-21.0747 218.06975,-31.010503 H 18.927617 C 10.540862,-21.0747 3.3158197,-9.8883172 -2.5131284,2.2618156"
               style="fill:#603813;fill-opacity:1;fill-rule:nonzero;stroke:none;stroke-width:1.08128357"
               id="path184" /></g><g
             id="g186"
             transform="matrix(1.0156814,0,0,1.890749,533.44231,444.91101)"><path
               inkscape:connector-curvature="0"
               d="M 1.2565642,-0.14301272 C 1.2565642,-6.0502464 0.93328394,-11.869312 0.31602069,-17.58919 H -270.24835 c -0.61625,5.719878 -0.93953,11.5389436 -0.93953,17.44617728 0,6.02846432 0.34348,11.97978172 0.97995,17.82088972 H 0.2766209 C 0.91307892,11.836769 1.2565642,5.8854516 1.2565642,-0.14301272"
               style="fill:#603813;fill-opacity:1;fill-rule:nonzero;stroke:none;stroke-width:1.05517447"
               id="path188" /></g><g
             id="g190"
             transform="translate(308.0601,344)"><path
               inkscape:connector-curvature="0"
               d="M 0,0 H 176.6 C 152.92,-20.56 122.04,-33.01 88.3,-33.01 54.56,-33.01 23.68,-20.56 0,0"
               style="fill:#f7c800;fill-opacity:1;fill-rule:nonzero;stroke:none"
               id="path192" /></g><g
             id="g194"
             transform="translate(263.8198,421)"><path
               inkscape:connector-curvature="0"
               d="m 0,0 h 265.081 c -1.96,-10.47 -5.131,-20.52 -9.361,-30 H 9.36 C 5.13,-20.52 1.96,-10.47 0,0"
               style="fill:#f7c800;fill-opacity:1;fill-rule:nonzero;stroke:none"
               id="path196" /></g><g
             id="g198"
             transform="translate(528.8301,471)"><path
               inkscape:connector-curvature="0"
               d="m 0,0 h -264.94 c 11.82,62.36 66.72,109.67 132.47,109.67 C -66.72,109.67 -11.82,62.36 0,0"
               style="fill:#f7c800;fill-opacity:1;fill-rule:nonzero;stroke:none"
               id="path200" /></g><g
             id="g202"
             transform="translate(484.6602,344)"><path
               inkscape:connector-curvature="0"
               d="m 0,0 h -176.6 c 23.68,-20.56 54.56,-33.01 88.3,-33.01 33.739,0 64.62,12.45 88.3,33.01 m 30.45,38 h -237.5 c 5.72,-10.59 12.81,-20.34 21.04,-29 H 9.41 c 8.23,8.66 15.319,18.41 21.04,29 m -251.22,89 H 44.17 C 32.35,189.36 -22.55,236.67 -88.3,236.67 -154.05,236.67 -208.95,189.36 -220.77,127 M 44.24,77 h -265.08 c 1.96,-10.47 5.13,-20.52 9.36,-30 H 34.88 c 4.229,9.48 7.4,19.53 9.36,30 m 1.369,9 c 0.611,5.19 0.931,10.47 0.931,15.83 0,5.47 -0.34,10.87 -0.97,16.17 h -267.74 c -0.63,-5.3 -0.97,-10.7 -0.97,-16.17 0,-5.36 0.32,-10.64 0.93,-15.83 z M -88.3,245.67 c 79.31,0 143.84,-64.53 143.84,-143.84 0,-79.32 -64.53,-143.84 -143.84,-143.84 -79.31,0 -143.84,64.52 -143.84,143.84 0,79.31 64.53,143.84 143.84,143.84"
               style="fill:#42210b;fill-opacity:1;fill-rule:nonzero;stroke:none"
               id="path204" /></g><g
             id="g206"
             transform="translate(468.667,519.6357)"><path
               inkscape:connector-curvature="0"
               d="m 0,0 c 0,-16.033 -12.998,-29.031 -29.031,-29.031 -16.033,0 -29.031,12.998 -29.031,29.031 0,16.034 12.998,29.031 29.031,29.031 C -12.998,29.031 0,16.034 0,0"
               style="fill:#42210b;fill-opacity:1;fill-rule:nonzero;stroke:none"
               id="path208" /></g><g
             id="g210"
             transform="translate(434.2031,514.2129)"><path
               inkscape:connector-curvature="0"
               d="m 0,0 c 3.428,-5.103 3.36,-11.15 -0.149,-13.507 -3.509,-2.357 -9.132,-0.131 -12.56,4.972 -3.427,5.102 -3.359,11.149 0.15,13.506 C -9.05,7.328 -3.427,5.103 0,0"
               style="fill:#f9edbd;fill-opacity:1;fill-rule:nonzero;stroke:none"
               id="path212" /></g><g
             id="g214"
             transform="translate(433.3975,530.3213)"><path
               inkscape:connector-curvature="0"
               d="m 0,0 c -3.316,-2.227 -7.246,-2.183 -8.777,0.098 -1.532,2.28 -0.085,5.934 3.23,8.161 3.316,2.227 7.245,2.183 8.777,-0.097 C 4.762,5.881 3.315,2.227 0,0"
               style="fill:#fbb03b;fill-opacity:1;fill-rule:nonzero;stroke:none"
               id="path216" /></g><g
             id="g218"
             transform="translate(382.6665,519.6357)"><path
               inkscape:connector-curvature="0"
               d="m 0,0 c 0,-16.033 -12.998,-29.031 -29.031,-29.031 -16.033,0 -29.031,12.998 -29.031,29.031 0,16.034 12.998,29.031 29.031,29.031 C -12.998,29.031 0,16.034 0,0"
               style="fill:#42210b;fill-opacity:1;fill-rule:nonzero;stroke:none"
               id="path220" /></g><g
             id="g222"
             transform="translate(348.2036,514.2129)"><path
               inkscape:connector-curvature="0"
               d="m 0,0 c 3.427,-5.103 3.36,-11.15 -0.149,-13.507 -3.51,-2.357 -9.133,-0.131 -12.56,4.972 -3.427,5.102 -3.36,11.149 0.149,13.506 C -9.05,7.328 -3.427,5.103 0,0"
               style="fill:#f9edbd;fill-opacity:1;fill-rule:nonzero;stroke:none"
               id="path224" /></g><g
             id="g226"
             transform="translate(347.397,530.3213)"><path
               inkscape:connector-curvature="0"
               d="m 0,0 c -3.315,-2.227 -7.245,-2.183 -8.777,0.098 -1.532,2.28 -0.085,5.934 3.231,8.161 3.316,2.227 7.245,2.183 8.777,-0.097 C 4.762,5.881 3.316,2.227 0,0"
               style="fill:#fbb03b;fill-opacity:1;fill-rule:nonzero;stroke:none"
               id="path228" /></g><path
             inkscape:connector-curvature="0"
             d="m 333,566 h -9 v 87 h 9 z"
             style="fill:#42210b;fill-opacity:1;fill-rule:nonzero;stroke:none"
             id="path230" /><path
             inkscape:connector-curvature="0"
             d="m 469,566 h -9 v 87 h 9 z"
             style="fill:#42210b;fill-opacity:1;fill-rule:nonzero;stroke:none"
             id="path232" /><g
             id="g234"
             transform="translate(328.4502,685.71)"><path
               inkscape:connector-curvature="0"
               d="M 0,0 C 7.91,0 14.35,-6.44 14.35,-14.35 14.35,-22.26 7.91,-28.7 0,-28.7 c -7.91,0 -14.35,6.44 -14.35,14.35 C -14.35,-6.44 -7.91,0 0,0"
               style="fill:#fbb03b;fill-opacity:1;fill-rule:nonzero;stroke:none"
               id="path236" /></g><g
             id="g238"
             transform="translate(464.4502,685.71)"><path
               inkscape:connector-curvature="0"
               d="M 0,0 C 7.91,0 14.35,-6.44 14.35,-14.35 14.35,-22.26 7.91,-28.7 0,-28.7 c -7.91,0 -14.351,6.44 -14.351,14.35 C -14.351,-6.44 -7.91,0 0,0"
               style="fill:#fbb03b;fill-opacity:1;fill-rule:nonzero;stroke:none"
               id="path240" /></g><g
             id="g242"
             transform="translate(478.7998,671.3599)"><path
               inkscape:connector-curvature="0"
               d="M 0,0 C 0,7.91 -6.439,14.35 -14.35,14.35 -22.26,14.35 -28.7,7.91 -28.7,0 c 0,-7.91 6.44,-14.35 14.35,-14.35 C -6.439,-14.35 0,-7.91 0,0 M -14.35,23.35 C -1.479,23.35 9,12.87 9,0 9,-12.87 -1.479,-23.35 -14.35,-23.35 c -12.87,0 -23.35,10.48 -23.35,23.35 0,12.87 10.48,23.35 23.35,23.35"
               style="fill:#42210b;fill-opacity:1;fill-rule:nonzero;stroke:none"
               id="path244" /></g><g
             id="g246"
             transform="translate(342.7998,671.3599)"><path
               inkscape:connector-curvature="0"
               d="M 0,0 C 0,7.91 -6.44,14.35 -14.35,14.35 -22.26,14.35 -28.7,7.91 -28.7,0 c 0,-7.91 6.44,-14.35 14.35,-14.35 C -6.44,-14.35 0,-7.91 0,0 M -14.35,23.35 C -1.48,23.35 9,12.87 9,0 9,-12.87 -1.48,-23.35 -14.35,-23.35 c -12.87,0 -23.35,10.48 -23.35,23.35 0,12.87 10.48,23.35 23.35,23.35"
               style="fill:#42210b;fill-opacity:1;fill-rule:nonzero;stroke:none"
               id="path248" /></g></g></g></g></g></svg>